<?xml version="1.0" encoding="utf-8"?>
<!-- Generator: Adobe Illustrator 19.2.0, SVG Export Plug-In . SVG Version: 6.00 Build 0)  -->
<svg version="1.1" id="Layer_1" xmlns="http://www.w3.org/2000/svg" xmlns:xlink="http://www.w3.org/1999/xlink" x="0px" y="0px"
	 width="483.8px" height="98.1px" viewBox="0 0 483.8 98.1" style="enable-background:new 0 0 483.8 98.1;" xml:space="preserve">
<path d="M61.8,5.6h0.8V0.7h-14v4.9h0.8c1.9,0,2.9,1.3,2.7,5.2L47,62.1l-5.6-51.3c-0.5-4,0.5-5.1,2.7-5.1h0.3V0.8L24.8,0.7v4.9h1
	c1.8,0,1.8,0.8,2.2,5.2l1.4,13.1l-4.6,41.6l-5-54.6C19.2,6.3,20,5.6,22,5.7h0.3V0.8L2.4,0.6v4.9h1c2.1,0,2.2,0.8,2.7,5.2l8.6,85.8
	h12.7l5.1-44.1l5,44.1H50L59,10.7C59.5,6.3,60.3,5.6,61.8,5.6 M79.2,60.4c-0.1,29-0.1,30.8-3.5,30.8s-3.4-2-3.3-30.8
	c0.1-29,0.1-31,3.5-30.9C79.2,29.5,79.2,31.4,79.2,60.4 M93.6,60.4c0-24.1-2.3-37-17.8-37S58,36.3,57.9,60.3
	c-0.1,23.9,2.1,37,17.8,37C91.3,97.5,93.5,84.4,93.6,60.4 M136.7,96.7l19.7,0.1v-4.9h-0.8c-1.3,0-1.7-0.5-1.7-2.4l0.2-53.6
	c0-8.8-1.8-12.3-10.5-12.3c-5,0-8.7,1.6-11,7.1c-1-4.9-3.5-7.1-10.3-7.1c-5.5,0-8.4,1.7-10.7,7.1v-7.1l-16.9,1.3v4.9h0.8
	c1.1,0,1.9,0.8,1.9,3.6l-0.2,55.7c0,2.2-0.5,2.8-2,2.8h-0.8v4.9l18.9,0.1V92h-0.8c-1,0-1.3-0.3-1.3-1.8l0.1-49.5
	c0-6-0.1-8.1,3.7-8.1c2.6,0,2.6,1,2.6,6l-0.2,51.2c0,1.8-0.6,2.2-1.5,2.2h-0.8V97l19.3,0.1v-4.9h-0.3c-1.3,0-1.8-0.5-1.8-2.4
	l0.1-48.9c0-6,0-8.1,3.8-8.1c2.6,0,2.6,1,2.6,6l-0.2,51.2c0,1.8-0.6,2.2-1.6,2.2h-0.6L136.7,96.7z M178.4,53.6h-6.6
	c0.3-22.9,0.7-23.9,3.8-23.9C178.7,29.6,178.4,30.8,178.4,53.6 M171.8,58.7l18.9,0.1c0.1-27.5-2.5-35-15.2-35.1
	c-11.8,0-18,7.2-18,37.5c-0.1,28.6,4.5,36.5,17.6,36.5c0.1,0,0.2,0,0.3,0c11.8,0,15.2-3.7,14.7-23.7h-5c0,15.9-0.8,17.1-6.5,17.1
	c-7.2,0-6.8-2.9-6.8-30.2L171.8,58.7z M230.8,89.6L231,36c0-8.8-2.1-12.3-10.8-12.3c-5.5,0-8.8,1.7-10.9,7.1v-7.1L191.2,25V30h1.9
	c1.1,0,1.9,0.8,1.9,3.6l-0.2,55.7c0,2.2-0.5,2.8-2,2.8h-0.8V97l18.9,0.1v-4.9h-0.8c-1.1,0-1.1-0.3-1.1-1.8l0.1-49.5
	c0-6,0-8.1,3.9-8.1c2.7,0,2.8,1,2.8,6L215.7,90c0,1.8-0.8,2.2-1.5,2.2h-0.8v4.9l19.8,0.1v-4.9h-0.8C231.2,92,230.8,91.5,230.8,89.6
	 M245.1,5.3c-1.5-2.3-4.2-4-6.9-4c-1.3,0-2.8,0.4-4,1.4c-4.4,3.7-3.3,10,4.8,13.7c-1.5,1.7-4.9,5-7.7,7.8l3.1,3.2
	C246.7,18.4,249.1,11.5,245.1,5.3 M267.3,83.2c0.1-20.7-18.6-32.7-18.6-47.5c0-4.5,1.6-5.8,4.8-5.8c4.7,0,5.3,2,6.2,8.9l0.8,6.8h5.3
	l0.1-21.3h-4.3c-0.3,2.3-0.7,3.3-1,3.3c-0.1,0-0.1,0-0.1-0.1c-1.3-1.6-4.5-3.9-9.8-3.9c-7.8,0-14.7,3.5-14.7,15.1
	c-0.1,18.1,18.5,32,18.4,45.7c0,6-1.3,6.9-5.7,6.9c-4.3,0-5.3-2-6.2-11l-0.6-6h-5.6l-0.1,22.4h4.9c0.3-2,1-3.5,1.6-3.5
	c0.2,0,0.3,0.1,0.3,0.2c1.6,1.8,3.3,4.2,10.5,4.2C262.5,97.9,267.2,92,267.3,83.2 M316.6,6.2h1.9V1.3l-23.4-0.1v4.9h1.8
	c1.9,0,2.6,0.8,2.6,5.2l-0.1,33.1H287l0.1-33.1c0-4.4,0.6-5.1,2.7-5.1h1.6V1.3l-23.6-0.1v4.9h2.1c1.9,0,2.6,0.8,2.6,5.2l-0.2,78.2
	c0,2.1-0.6,2.7-2.6,2.7h-2.1V97l23.6,0.1v-4.9h-1.6c-2.1,0-2.7-0.8-2.7-5.2l0.1-36.9h12.4L299.3,87c0,4.3-0.6,5.2-2.6,5.1h-1.8V97
	l23.4,0.1v-4.9h-1.9c-2.1,0-2.4-0.8-2.4-5.2l0.2-75.8C314.1,6.9,314.5,6.2,316.6,6.2 M338.2,53.9h-6.5c0.4-22.9,0.7-23.9,3.8-23.9
	C338.8,30,338.3,31.2,338.2,53.9 M331.7,59.1l19.5,0.1c0.1-27.5-3-35-15.9-35.1c-11.8,0-17.9,7.2-17.9,37.5
	c-0.1,28.6,4.5,36.5,17.4,36.5c0.1,0,0.2,0,0.3,0c12.1,0,14.9-3.7,14.4-23.7h-5c0,15.9-0.5,17.1-6.2,17.1c-6.8,0-6.7-2.9-6.7-30.2
	L331.7,59.1z M372.1,53.7L372,83.9c0,4.5-0.6,5.6-2.9,5.6c-2.9,0-2.9-3.1-2.9-12.7C366.2,59.2,366.2,56.9,372.1,53.7 M392.9,83h-4
	c0,7.2-0.2,7.9-1.5,7.9c-1.3,0-1.3-0.6-1.2-4.7l0.1-47.6c0-9.7-3.2-14.7-14.4-14.7c-8.9,0-17.7,2.7-17.3,12.3
	c0.3,4.3,1.8,8.8,6.3,8.8c0.1,0,0.3,0,0.3,0c4.3-0.3,6.3-2.6,6.3-6.1c0-2.4-1.8-6.5-4.8-8.7c1.1-0.5,2.8-1,5.6-1
	c3.2,0,3.8,2.4,3.8,7.1v13.3c-16.3,5.4-19.7,7.7-19.8,28c0,14.7,3.5,20.2,10.8,20.2c6.5,0,8.9-3.2,10.3-6.9c1.2,5.6,2.6,7,9.8,7
	C391.9,98.2,393,93,392.9,83 M393.9,97.3l19.5,0.1v-4.9h-1.5c-1.3,0-1.7-0.6-1.7-2.6L410.5,0l-18.2,1.4v4.9h2.1
	c1.3,0,1.7,0.5,1.7,2.4l-0.3,81.3c0,1.8-0.2,2.3-1,2.3h-1L393.9,97.3z M440.4,24.9h-8.8l0.1-18.4h-5c-3.6,16.3-6.7,18.4-11.4,18.3
	H414v5.3h3.3l-0.3,52.1c0,11.6,1.7,16,13.2,16c8.1,0,9.9-3.2,9.9-12.1V74.1h-4.9v12.7c0,4.3-0.4,4.8-2,4.8c-1.6,0-1.9-0.5-1.9-4.3
	l0.2-57h8.9V24.9z M482.4,97.5v-4.9h-0.8c-1.3,0-1.6-0.5-1.6-2.4l0.2-53.6c0-8.8-2.2-12.3-10.8-12.3c-5.6,0-8.8,1.7-11.2,7.1
	l0.1-31.1l-17.9,1.4v4.9h1.8c1.3,0,1.9,0.8,1.9,3.4L444,89.8c0,2.2-0.3,2.8-1.9,2.8h-0.6v4.9l18.7,0.1v-4.9h-0.6
	c-1.3,0-1.3-0.3-1.3-1.8l0.1-49.5c0-6,0.2-8.1,3.9-8.1c2.8,0,2.8,1,2.8,6l-0.2,51.2c0,1.8-0.5,2.2-1.3,2.2h-0.8v4.9L482.4,97.5z"/>
</svg>
